<svg id="svg1569" height="512" viewBox="0 0 6.3499999 6.3500002" width="512" xmlns="http://www.w3.org/2000/svg" xmlnssvg="http://www.w3.org/2000/svg"><g id="layer1" transform="translate(0 -290.65)"><path id="path2536" d="m3.1703618 290.9099a.26460982.26460982 0 0 0 -.2599325.26975v.79272a.2648417.2648417 0 1 0 .5296834 0v-.79272a.26460982.26460982 0 0 0 -.2697509-.26975zm1.8494995.7581a.26460982.26460982 0 0 0 -.1813844.0822l-.5570717.56638a.26530158.26530158 0 1 0 .3793048.37103l.5544884-.56637a.26460982.26460982 0 0 0 -.1953371-.4532zm-3.7403401.0372a.26460982.26460982 0 0 0 -.1793174.45682l.5663737.55449a.26460982.26460982 0 1 0 .3710369-.37672l-.5663737-.55656a.26460982.26460982 0 0 0 -.1917195-.078zm1.894458.89814c-.6719351 0-1.2205976.54866-1.2205976 1.2206 0 .67193.5486625 1.22266 1.2205976 1.22266s1.2226645-.55073 1.2226645-1.22266c0-.67194-.5507294-1.2206-1.2226645-1.2206zm-2.67167153.95705a.26519511.26519511 0 0 0 .0273883.52968h.79271663a.2648413.2648413 0 1 0 0-.52968h-.79271659a.26460982.26460982 0 0 0 -.0273883 0zm4.49791673 0a.26519511.26519511 0 0 0 .027388.52968h.7932332a.2648413.2648413 0 1 0 0-.52968h-.7932328a.26460982.26460982 0 0 0 -.027388 0zm-.5074626 1.29294a.26460982.26460982 0 0 0 -.1798341.45734l.5663737.55449a.26460982.26460982 0 1 0 .3710368-.37673l-.5684409-.55707a.26460982.26460982 0 0 0 -.1891355-.078zm-2.6210287.0274a.26460982.26460982 0 0 0 -.1819011.0822l-.5565552.56638a.26517944.26517944 0 1 0 .3787883.37104l.5544881-.56845a.26460982.26460982 0 0 0 -.1948201-.45118zm1.2986287.52762a.26460982.26460982 0 0 0 -.2599325.26923v.79323a.2648417.2648417 0 1 0 .5296834 0v-.79323a.26460982.26460982 0 0 0 -.2697509-.26923z" font-variant-ligatures="normal" font-variant-position="normal" font-variant-caps="normal" font-variant-numeric="normal" font-variant-alternates="normal" font-feature-settings="normal" text-indent="0" text-align="start" text-decoration-line="none" text-decoration-style="solid" text-decoration-color="rgb(0,0,0)" text-transform="none" text-orientation="mixed" white-space="normal" shape-padding="0" isolation="auto" mix-blend-mode="normal" solid-color="rgb(0,0,0)" solid-opacity="1" vector-effect="none"/></g></svg>